<svg xmlns="http://www.w3.org/2000/svg" xmlns:xlink="http://www.w3.org/1999/xlink" width="203.401" height="101.021" viewBox="0 0 203.401 101.021"><defs><linearGradient id="a" x1="0.06" y1="0.146" x2="0.747" y2="0.754" gradientUnits="objectBoundingBox"><stop offset="0" stop-color="#e3bc8d"/><stop offset="1" stop-color="#cba170"/></linearGradient></defs><g transform="translate(-9.017 -10.352)"><g transform="translate(9.517 10.852)"><path d="M211.918,10.852v97.527H182.789v-1.036H210.88V11.889H10.553v95.454H42.391v1.036H9.517V10.852Z" transform="translate(-9.517 -10.852)" stroke="rgba(0,0,0,0)" stroke-width="1" fill="url(#a)"/><g transform="translate(38.325 92.817)"><path d="M71.027,163.375a3.719,3.719,0,0,1,.227-1.272,3.438,3.438,0,0,1,.652-1.131,3.349,3.349,0,0,1,1.057-.818,3.146,3.146,0,0,1,1.429-.315,2.952,2.952,0,0,1,1.619.43,2.7,2.7,0,0,1,1,1.12l-.56.341a2.133,2.133,0,0,0-.409-.59,2.268,2.268,0,0,0-.52-.393,2.3,2.3,0,0,0-.581-.212,2.578,2.578,0,0,0-.586-.063,2.382,2.382,0,0,0-1.131.258,2.562,2.562,0,0,0-.825.679,2.97,2.97,0,0,0-.5.943,3.42,3.42,0,0,0-.172,1.064,3.278,3.278,0,0,0,.768,2.083,2.726,2.726,0,0,0,.837.662,2.336,2.336,0,0,0,1.054.24,2.6,2.6,0,0,0,.615-.074,2.391,2.391,0,0,0,.611-.24,2.467,2.467,0,0,0,.545-.407,2.2,2.2,0,0,0,.419-.6l.579.3a2.167,2.167,0,0,1-.481.7,3.1,3.1,0,0,1-.688.517,3.462,3.462,0,0,1-.805.32,3.271,3.271,0,0,1-.834.109,2.838,2.838,0,0,1-1.339-.32,3.525,3.525,0,0,1-1.048-.834,3.883,3.883,0,0,1-.685-1.169A3.811,3.811,0,0,1,71.027,163.375Z" transform="translate(-71.027 -159.827)" stroke="rgba(0,0,0,0)" stroke-width="1" fill="url(#a)"/><path d="M86.273,167V159.9h.689v6.474h4.106V167Z" transform="translate(-76.774 -159.851)" stroke="rgba(0,0,0,0)" stroke-width="1" fill="url(#a)"/><path d="M99.2,167v-7.084h.688V167Z" transform="translate(-81.645 -159.857)" stroke="rgba(0,0,0,0)" stroke-width="1" fill="url(#a)"/><path d="M107.34,161.2V167h-.689V159.9h.539l4.694,5.9v-5.892h.688V167h-.6Z" transform="translate(-84.455 -159.851)" stroke="rgba(0,0,0,0)" stroke-width="1" fill="url(#a)"/><path d="M122.5,167v-7.084h.69V167Z" transform="translate(-90.431 -159.857)" stroke="rgba(0,0,0,0)" stroke-width="1" fill="url(#a)"/><path d="M129.222,163.375a3.838,3.838,0,0,1,.224-1.272,3.5,3.5,0,0,1,.657-1.131,3.354,3.354,0,0,1,1.059-.818,3.129,3.129,0,0,1,1.428-.315,2.947,2.947,0,0,1,1.617.43,2.7,2.7,0,0,1,1,1.12l-.56.341a2.148,2.148,0,0,0-.409-.59,2.158,2.158,0,0,0-1.1-.6,2.627,2.627,0,0,0-.593-.063,2.372,2.372,0,0,0-1.127.258,2.551,2.551,0,0,0-.824.679,2.938,2.938,0,0,0-.505.943,3.434,3.434,0,0,0-.169,1.064,3.163,3.163,0,0,0,.2,1.128,3.255,3.255,0,0,0,.56.955,2.733,2.733,0,0,0,.842.662,2.312,2.312,0,0,0,1.053.24,2.605,2.605,0,0,0,.612-.074,2.369,2.369,0,0,0,.61-.24,2.414,2.414,0,0,0,.543-.407,2.219,2.219,0,0,0,.421-.6l.578.3a2.139,2.139,0,0,1-.478.7,3.153,3.153,0,0,1-.69.517,3.384,3.384,0,0,1-.8.32,3.3,3.3,0,0,1-.835.109,2.835,2.835,0,0,1-1.338-.32,3.52,3.52,0,0,1-1.049-.834,3.883,3.883,0,0,1-.685-1.169A3.755,3.755,0,0,1,129.222,163.375Z" transform="translate(-92.963 -159.827)" stroke="rgba(0,0,0,0)" stroke-width="1" fill="url(#a)"/><path d="M143.1,167l2.968-7.095h.568L149.61,167h-.748l-.921-2.216h-3.186L143.845,167Zm3.257-6.272-1.459,3.5h2.875Z" transform="translate(-98.196 -159.851)" stroke="rgba(0,0,0,0)" stroke-width="1" fill="url(#a)"/><path d="M158.655,167V159.9h.689v6.474h4.107V167Z" transform="translate(-104.057 -159.851)" stroke="rgba(0,0,0,0)" stroke-width="1" fill="url(#a)"/><path d="M182.547,161.2a2.148,2.148,0,0,0-.8-.546,2.9,2.9,0,0,0-1.135-.212,2.17,2.17,0,0,0-1.38.355,1.188,1.188,0,0,0-.429.964,1.05,1.05,0,0,0,.116.522,1.028,1.028,0,0,0,.361.358,2.67,2.67,0,0,0,.62.259c.249.074.545.148.882.219.379.083.722.169,1.019.265a2.778,2.778,0,0,1,.771.37,1.534,1.534,0,0,1,.489.549,1.748,1.748,0,0,1,.169.806,1.8,1.8,0,0,1-.189.847,1.742,1.742,0,0,1-.53.6,2.344,2.344,0,0,1-.809.353,4.261,4.261,0,0,1-1.02.115A4.177,4.177,0,0,1,177.834,166l.336-.569a3.1,3.1,0,0,0,1.05.693,3.624,3.624,0,0,0,1.471.285,2.475,2.475,0,0,0,1.325-.3,1.014,1.014,0,0,0,.48-.922,1.067,1.067,0,0,0-.134-.556,1.177,1.177,0,0,0-.407-.388,2.691,2.691,0,0,0-.675-.285c-.267-.083-.579-.163-.933-.243-.372-.086-.7-.173-.976-.266a2.516,2.516,0,0,1-.706-.353,1.377,1.377,0,0,1-.431-.5,1.642,1.642,0,0,1-.141-.728,1.956,1.956,0,0,1,.185-.871,1.738,1.738,0,0,1,.517-.639,2.4,2.4,0,0,1,.8-.391,3.7,3.7,0,0,1,1.024-.137,3.342,3.342,0,0,1,2.259.822Z" transform="translate(-111.286 -159.82)" stroke="rgba(0,0,0,0)" stroke-width="1" fill="url(#a)"/><path d="M191.986,167v-7.084h.69v4.119l3.905-4.13h.768l-2.9,3.12L197.511,167h-.77l-2.718-3.567-1.347,1.389V167Z" transform="translate(-116.621 -159.851)" stroke="rgba(0,0,0,0)" stroke-width="1" fill="url(#a)"/><path d="M205.727,167v-7.084h.688V167Z" transform="translate(-121.8 -159.857)" stroke="rgba(0,0,0,0)" stroke-width="1" fill="url(#a)"/><path d="M213.871,161.2V167h-.689V159.9h.539l4.694,5.9v-5.892h.688V167h-.6Z" transform="translate(-124.61 -159.851)" stroke="rgba(0,0,0,0)" stroke-width="1" fill="url(#a)"/><path d="M228.3,163.375a3.792,3.792,0,0,1,.225-1.272,3.471,3.471,0,0,1,.657-1.131,3.323,3.323,0,0,1,1.058-.818,3.132,3.132,0,0,1,1.429-.315,2.948,2.948,0,0,1,1.617.43,2.7,2.7,0,0,1,1,1.12l-.56.341a2.16,2.16,0,0,0-.409-.59,2.15,2.15,0,0,0-1.1-.6,2.633,2.633,0,0,0-.592-.063,2.379,2.379,0,0,0-1.128.258,2.512,2.512,0,0,0-.822.679,2.9,2.9,0,0,0-.507.943,3.434,3.434,0,0,0-.169,1.064,3.15,3.15,0,0,0,.2,1.128,3.236,3.236,0,0,0,.558.955,2.746,2.746,0,0,0,.842.662,2.321,2.321,0,0,0,1.054.24,2.613,2.613,0,0,0,.612-.074,2.383,2.383,0,0,0,.609-.24,2.475,2.475,0,0,0,.544-.407,2.15,2.15,0,0,0,.42-.6l.577.3a2.1,2.1,0,0,1-.477.7,3.149,3.149,0,0,1-.689.517,3.362,3.362,0,0,1-.8.32,3.278,3.278,0,0,1-.834.109,2.827,2.827,0,0,1-1.338-.32,3.517,3.517,0,0,1-1.05-.834,3.894,3.894,0,0,1-.684-1.169A3.743,3.743,0,0,1,228.3,163.375Z" transform="translate(-130.308 -159.827)" stroke="rgba(0,0,0,0)" stroke-width="1" fill="url(#a)"/><path d="M242.182,167l2.967-7.095h.569L248.686,167h-.749l-.921-2.216H243.83L242.923,167Zm3.256-6.272-1.459,3.5h2.875Z" transform="translate(-135.541 -159.851)" stroke="rgba(0,0,0,0)" stroke-width="1" fill="url(#a)"/><path d="M257.732,167V159.9h2.988a1.86,1.86,0,0,1,.849.2,2.2,2.2,0,0,1,.67.513,2.346,2.346,0,0,1,.433.712,2.229,2.229,0,0,1,.155.809,2.435,2.435,0,0,1-.113.743,2.231,2.231,0,0,1-.326.641,2.02,2.02,0,0,1-.5.479,1.786,1.786,0,0,1-.646.265L262.988,167H262.2l-1.677-2.619h-2.1V167Zm.688-3.241h2.332a1.17,1.17,0,0,0,.562-.131,1.332,1.332,0,0,0,.436-.364,1.871,1.871,0,0,0,.279-.52,1.829,1.829,0,0,0,.1-.609A1.729,1.729,0,0,0,261.7,161a1.483,1.483,0,0,0-.456-.35,1.254,1.254,0,0,0-.556-.13H258.42Z" transform="translate(-141.403 -159.851)" stroke="rgba(0,0,0,0)" stroke-width="1" fill="url(#a)"/><path d="M276.541,166.375V167h-4.766V159.9h4.674v.62h-3.986v2.56h3.479v.589h-3.479v2.706Z" transform="translate(-146.696 -159.851)" stroke="rgba(0,0,0,0)" stroke-width="1" fill="url(#a)"/></g><g transform="translate(34.231 18.25)"><path d="M74,91.96a23.9,23.9,0,0,1-.446,6.077c-.525,1.73-1.462,2.7-2.787,2.89a2.69,2.69,0,0,1-.439.034,5.386,5.386,0,0,1-2.847-1.007,4.412,4.412,0,0,0-1.559-.82,1.9,1.9,0,0,0-1.464,2.086,3.022,3.022,0,0,0,.65,1.976,1.654,1.654,0,0,0,1.365.666l.128,0a10.563,10.563,0,0,0,8.2-4.339c2.9-3.945,4.364-9.6,4.364-16.818V43.318h6.383V42.53H67.684v.788H74Z" transform="translate(-64.457 -41.043)" stroke="rgba(0,0,0,0)" stroke-width="1" fill="url(#a)"/><path d="M124.52,46.065l.026.011c.152-1.57,1.27-2.4,3.244-2.4.18,0,.358.007.53.018.1.014.206.022.308.034.124.007.247.018.358.034l.093.014a11.617,11.617,0,0,1,6.009,2.571c.16.174.312.338.472.516l.057.063a10.882,10.882,0,0,1,2.089,3.593c.079.215.144.455.206.687.031.118.063.234.1.347s.069.234.105.351c.1.328.2.67.279,1.037,0,.012.006.036.011.056a24.688,24.688,0,0,1,.369,2.567h.642l-.121-13.039H104.986l-.123,13.039h.642a23.8,23.8,0,0,1,.368-2.543.6.6,0,0,1,.016-.087c.074-.36.176-.7.275-1.031.037-.117.072-.232.107-.351s.065-.229.095-.347c.062-.232.126-.472.206-.687a10.872,10.872,0,0,1,2.09-3.593l.057-.063c.16-.178.312-.341.462-.508a11.621,11.621,0,0,1,6.015-2.579l.1-.014c.108-.016.231-.027.356-.034.1-.011.2-.02.3-.031.181-.013.359-.021.538-.021,1.977,0,3.1.826,3.247,2.4l.013-.009.012.185V89.394h-6.25v.789h17.259v-.789H124.52Z" transform="translate(-79.687 -41.043)" stroke="rgba(0,0,0,0)" stroke-width="1" fill="url(#a)"/><path d="M238.405,40.866h6.351l-.058.158L230.066,81.338l-.109-.327-13.2-40.148H222.4v-.72H206.422v.72h4.846l.158.49,15.631,47.8h1.673l17.363-48.294h5.541v-.713H238.405Z" transform="translate(-117.969 -40.143)" stroke="rgba(0,0,0,0)" stroke-width="1" fill="url(#a)"/><path d="M194.289,88.491,178.455,40.354h-1.672l-17.3,48.225h-5.609v.783h13.23v-.685H160.6l5.859-15.555h17.193l.026.084,5.006,15.367H183.04v.789h16.051v-.789h-4.775ZM166.866,71.836l.059-.158,8.666-23.609.1.328,7.472,23.438Z" transform="translate(-98.163 -40.223)" stroke="rgba(0,0,0,0)" stroke-width="1" fill="url(#a)"/></g></g></g></svg>